<svg xmlns="http://www.w3.org/2000/svg" viewBox="0 0 240 240" fill="none">
  <defs>
    <linearGradient id="goldGrad" x1="0%" y1="0%" x2="100%" y2="100%">
      <stop offset="0%" stop-color="#F5D77A"/>
      <stop offset="40%" stop-color="#D4AF37"/>
      <stop offset="70%" stop-color="#C9A227"/>
      <stop offset="100%" stop-color="#876818"/>
    </linearGradient>
    <linearGradient id="goldShine" x1="0%" y1="0%" x2="0%" y2="100%">
      <stop offset="0%" stop-color="#FBE9A7"/>
      <stop offset="50%" stop-color="#D4AF37"/>
      <stop offset="100%" stop-color="#8B6914"/>
    </linearGradient>
  </defs>
  <!-- Stylized flame / lotus mark -->
  <g transform="translate(120,90)">
    <path d="M 0 -55 C -8 -30 -20 -15 -22 5 C -22 22 -10 30 0 30 C 10 30 22 22 22 5 C 20 -15 8 -30 0 -55 Z"
          fill="url(#goldShine)"/>
    <path d="M -38 -25 C -42 -5 -40 10 -32 22 C -28 26 -20 28 -16 22 C -22 12 -24 0 -24 -10 C -28 -18 -34 -22 -38 -25 Z"
          fill="url(#goldGrad)"/>
    <path d="M 38 -25 C 42 -5 40 10 32 22 C 28 26 20 28 16 22 C 22 12 24 0 24 -10 C 28 -18 34 -22 38 -25 Z"
          fill="url(#goldGrad)"/>
    <path d="M -58 -10 C -60 8 -54 22 -46 28 C -42 30 -36 28 -34 24 C -40 18 -44 8 -46 -2 C -50 -8 -54 -10 -58 -10 Z"
          fill="url(#goldGrad)" opacity="0.85"/>
    <path d="M 58 -10 C 60 8 54 22 46 28 C 42 30 36 28 34 24 C 40 18 44 8 46 -2 C 50 -8 54 -10 58 -10 Z"
          fill="url(#goldGrad)" opacity="0.85"/>
  </g>
  <!-- AHINSA wordmark -->
  <text x="120" y="180" text-anchor="middle"
        font-family="Georgia, serif" font-weight="700" font-size="38"
        fill="url(#goldShine)" letter-spacing="6">AHINSA</text>
  <text x="120" y="210" text-anchor="middle"
        font-family="Inter, sans-serif" font-weight="400" font-size="11"
        fill="#C9A227" letter-spacing="8">G R O U P   A G R A</text>
</svg>
